<svg width="34" height="34" viewBox="0 0 34 34" fill="none" xmlns="http://www.w3.org/2000/svg">
<path d="M31.6316 29.0368V17.442C31.6316 16.6353 31.467 15.8371 31.1478 15.0963C30.8286 14.3554 30.3615 13.6876 29.7751 13.1336L18.8515 2.80996C18.3013 2.28982 17.5729 2 16.8158 2C16.0587 2 15.3303 2.28982 14.7801 2.80996L3.85642 13.1336C3.27004 13.6876 2.80294 14.3554 2.48373 15.0963C2.16452 15.8371 1.99991 16.6353 2 17.442V29.0368C2 29.8227 2.31219 30.5764 2.86789 31.1321C3.42359 31.6878 4.17728 32 4.96316 32H28.6684C29.4543 32 30.208 31.6878 30.7637 31.1321C31.3194 30.5764 31.6316 29.8227 31.6316 29.0368Z" stroke="black" stroke-width="3" stroke-linecap="round" stroke-linejoin="round"/>
<path d="M31.6316 29.0368V17.442C31.6316 16.6353 31.467 15.8371 31.1478 15.0963C30.8286 14.3554 30.3615 13.6876 29.7751 13.1336L18.8515 2.80996C18.3013 2.28982 17.5729 2 16.8158 2C16.0587 2 15.3303 2.28982 14.7801 2.80996L3.85642 13.1336C3.27004 13.6876 2.80294 14.3554 2.48373 15.0963C2.16452 15.8371 1.99991 16.6353 2 17.442V29.0368C2 29.8227 2.31219 30.5764 2.86789 31.1321C3.42359 31.6878 4.17728 32 4.96316 32H28.6684C29.4543 32 30.208 31.6878 30.7637 31.1321C31.3194 30.5764 31.6316 29.8227 31.6316 29.0368Z" stroke="url(#paint0_linear_1102_1957)" stroke-width="3" stroke-linecap="round" stroke-linejoin="round"/>
<defs>
<linearGradient id="paint0_linear_1102_1957" x1="2" y1="16.7059" x2="31.6316" y2="16.7059" gradientUnits="userSpaceOnUse">
<stop stop-color="#FF007D"/>
<stop offset="1" stop-color="#B627DC"/>
</linearGradient>
</defs>
</svg>
